<?xml version="1.0" standalone="no"?>
<!DOCTYPE svg PUBLIC "-//W3C//DTD SVG 20010904//EN"
 "http://www.w3.org/TR/2001/REC-SVG-20010904/DTD/svg10.dtd">
<svg version="1.0" xmlns="http://www.w3.org/2000/svg"
 width="224.000000pt" height="224.000000pt" viewBox="0 0 224.000000 224.000000"
 preserveAspectRatio="xMidYMid meet">
<metadata>
Created by potrace 1.11, written by Peter Selinger 2001-2013
</metadata>
<g transform="translate(0.000000,224.000000) scale(0.100000,-0.100000)"
fill="#000000" stroke="none">
<path d="M1001 1990 c-351 -49 -640 -307 -732 -655 -28 -104 -30 -306 -6 -408
99 -405 446 -680 857 -679 248 0 440 80 616 256 176 176 256 368 256 616 1
472 -359 851 -829 874 -54 3 -127 1 -162 -4z m319 -532 l0 -161 23 20 c92 84
236 56 284 -57 38 -87 34 -259 -6 -339 -52 -102 -177 -145 -305 -106 -73 22
-102 19 -183 -21 -66 -33 -79 -36 -140 -32 -60 4 -69 7 -93 36 -25 30 -28 31
-41 16 -22 -27 -90 -54 -139 -54 -88 0 -149 68 -135 151 12 69 60 108 194 155
86 30 101 50 101 134 0 82 -17 125 -55 134 -22 6 -75 -1 -75 -9 0 -2 14 -17
30 -33 56 -56 35 -142 -39 -162 -69 -18 -123 20 -125 88 -1 51 23 85 81 113
42 21 63 24 158 24 121 0 157 -12 199 -68 20 -27 21 -43 24 -245 1 -119 5
-223 7 -230 4 -10 10 -10 25 -2 19 10 20 20 20 380 l0 370 -25 16 c-14 9 -25
20 -25 25 0 4 46 10 103 12 56 1 110 4 120 5 16 2 17 -12 17 -160z"/>
<path d="M1345 1285 c-25 -24 -25 -24 -25 -238 l0 -215 28 -5 c36 -7 70 16 90
61 21 49 29 273 12 340 -20 82 -59 104 -105 57z"/>
<path d="M837 1051 c-79 -88 -68 -218 16 -197 l27 6 0 115 c0 63 -2 115 -4
115 -2 0 -20 -18 -39 -39z"/>
</g>
</svg>
